<svg id="icon" height="512" viewBox="0 0 128 128" width="512" xmlns="http://www.w3.org/2000/svg"><rect fill="#fac77c" height="29.096" rx="5.026" width="112.066" x="14.934" y="64.815"/><path d="m126.994 69.836v19.055a5.009 5.009 0 0 1 -5.016 5.016h-102.018a5.006 5.006 0 0 1 -5.016-4.742h103.973a3.017 3.017 0 0 0 3.012-3.024v-21.32h.05a5.009 5.009 0 0 1 5.015 5.015z" fill="#e5ae5c"/><path d="m121.974 94.911h-102.013a6.033 6.033 0 0 1 -6.026-6.026v-19.044a6.033 6.033 0 0 1 6.026-6.026h102.013a6.033 6.033 0 0 1 6.026 6.026v19.044a6.033 6.033 0 0 1 -6.026 6.026zm-102.013-29.096a4.031 4.031 0 0 0 -4.026 4.026v19.044a4.031 4.031 0 0 0 4.026 4.026h102.013a4.031 4.031 0 0 0 4.026-4.026v-19.044a4.031 4.031 0 0 0 -4.026-4.026z" fill="#2f3a5a"/><path d="m33.965 64.815h6.993v29.096h-6.993z" fill="#dbe2eb"/><path d="m41.958 94.911h-8.993v-31.1h8.993zm-6.993-2h4.993v-27.1h-4.993z" fill="#2f3a5a"/><path d="m100.977 64.815h6.993v29.096h-6.993z" fill="#dbe2eb"/><path d="m108.97 94.911h-8.993v-31.1h8.993zm-6.993-2h4.993v-27.1h-4.993z" fill="#2f3a5a"/><rect fill="#4fa4d1" height="29.096" rx="5.026" width="112.066" x="1" y="93.911"/><path d="m113.067 98.935v19.042a5.03 5.03 0 0 1 -5.028 5.028h-102.019a5.018 5.018 0 0 1 -5.02-4.905h100.7a5.03 5.03 0 0 0 5.028-5.028v-19.165h1.307a5.03 5.03 0 0 1 5.032 5.028z" fill="#477ea8"/><path d="m108.039 124.007h-102.013a6.033 6.033 0 0 1 -6.026-6.026v-19.043a6.033 6.033 0 0 1 6.026-6.026h102.013a6.033 6.033 0 0 1 6.026 6.026v19.043a6.033 6.033 0 0 1 -6.026 6.026zm-102.013-29.096a4.031 4.031 0 0 0 -4.026 4.027v19.043a4.031 4.031 0 0 0 4.026 4.026h102.013a4.031 4.031 0 0 0 4.026-4.026v-19.043a4.031 4.031 0 0 0 -4.026-4.026z" fill="#2f3a5a"/><path d="m20.031 93.911h6.993v29.096h-6.993z" fill="#dbe2eb"/><path d="m28.023 124.007h-8.993v-31.1h8.993zm-6.993-2h4.993v-27.1h-4.993z" fill="#2f3a5a"/><path d="m87.042 93.911h6.993v29.096h-6.993z" fill="#dbe2eb"/><path d="m95.035 124.007h-8.993v-31.1h8.993zm-6.993-2h4.993v-27.1h-4.993z" fill="#2f3a5a"/><path d="m81.557 16.913a9.627 9.627 0 0 0 -7.386 1.628 14.809 14.809 0 0 1 -15.877 0 9.627 9.627 0 0 0 -7.386-1.628c-7.417 1.69-11 13.739-8 26.914s11.447 22.485 18.864 20.8a7.87 7.87 0 0 0 1.406-.463 7.683 7.683 0 0 1 6.1 0 7.868 7.868 0 0 0 1.406.463c7.417 1.689 15.863-7.621 18.864-20.8s-.574-25.227-7.991-26.914z" fill="#f26176"/><path d="m89.55 43.827c-3 13.17-11.44 22.48-18.86 20.8a8.637 8.637 0 0 1 -1.41-.47 7.7 7.7 0 0 0 -6.1 0 8.526 8.526 0 0 1 -1.4.47c-4.47 1.01-9.31-1.96-13.1-7.36 2.81 2.24 5.84 3.23 8.71 2.58a8.493 8.493 0 0 0 1.4-.46 7.638 7.638 0 0 1 6.11 0 8.493 8.493 0 0 0 1.4.46c7.42 1.69 15.86-7.62 18.87-20.8 1.9-8.35 1.16-16.25-1.53-21.34 5.97 3.293 8.61 14.24 5.91 26.12z" fill="#e95a6a"/><path d="m60.051 65.815c-7.415 0-15.248-9.184-18.114-21.767a36.9 36.9 0 0 1 .107-18.271c1.618-5.445 4.687-8.939 8.643-9.84a10.632 10.632 0 0 1 8.147 1.763 13.728 13.728 0 0 0 14.8 0 10.623 10.623 0 0 1 8.147-1.762c3.956.9 7.024 4.4 8.643 9.84a36.9 36.9 0 0 1 .107 18.271c-3.121 13.69-12.131 23.351-20.063 21.551a8.875 8.875 0 0 1 -1.584-.522 6.731 6.731 0 0 0 -5.3 0 8.837 8.837 0 0 1 -1.584.522 8.738 8.738 0 0 1 -1.949.215zm-7.39-48.1a6.875 6.875 0 0 0 -1.531.17c-3.22.733-5.766 3.738-7.169 8.46a34.9 34.9 0 0 0 -.075 17.255c2.874 12.617 10.8 21.6 17.668 20.043a6.824 6.824 0 0 0 1.226-.4 8.651 8.651 0 0 1 6.905 0 6.885 6.885 0 0 0 1.227.4c6.87 1.572 14.794-7.423 17.667-20.043a34.9 34.9 0 0 0 -.079-17.252c-1.4-4.722-3.949-7.727-7.169-8.46a8.685 8.685 0 0 0 -6.624 1.494 15.729 15.729 0 0 1 -16.957 0 9.5 9.5 0 0 0 -5.089-1.664z" fill="#2f3a5a"/><path d="m66.231 21.848a1 1 0 0 1 -.985-.837c-.092-.558-2.149-13.694 6.545-16.955a1 1 0 0 1 .7 1.873c-7.171 2.69-5.291 14.636-5.272 14.757a1 1 0 0 1 -.824 1.149 1.029 1.029 0 0 1 -.164.013z" fill="#2f3a5a"/><path d="m66.807 11.145s-26.659-13.109-34.522 18.343c0 0 25.797 5.468 34.522-18.343z" fill="#6fc682"/><g fill="#2f3a5a"><path d="m38.442 30.994a34.749 34.749 0 0 1 -6.364-.528 1 1 0 0 1 -.763-1.221c2.515-10.059 7.192-16.738 13.9-19.852 10.324-4.791 21.555.621 22.028.854a1 1 0 0 1 .5 1.242c-6.184 16.886-20.824 19.505-29.301 19.505zm-4.916-2.3c4.782.721 24.312 2.38 32.006-17.011-2.712-1.107-11.561-4.148-19.484-.465-5.902 2.74-10.11 8.617-12.522 17.472z"/><path d="m46.074 21.848a1 1 0 0 1 -.575-1.819c11.25-7.892 20.72-9.79 21.117-9.867a1 1 0 0 1 .384 1.964c-.093.019-9.473 1.911-20.35 9.541a1 1 0 0 1 -.576.181z"/><path d="m54.029 21.848a1 1 0 0 1 -.908-1.417l2.846-6.216a1 1 0 0 1 1.818.833l-2.846 6.216a1 1 0 0 1 -.91.584z"/><path d="m51.6 18.341a.926.926 0 0 1 -.1-.005l-6.16-.626a1 1 0 0 1 .2-1.99l6.162.627a1 1 0 0 1 -.1 1.995z"/></g></svg>